<?xml version="1.0" encoding="iso-8859-1"?>
<!-- Generator: Adobe Illustrator 19.0.0, SVG Export Plug-In . SVG Version: 6.00 Build 0)  -->
<svg version="1.1" id="Layer_1" xmlns="http://www.w3.org/2000/svg" xmlns:xlink="http://www.w3.org/1999/xlink" x="0px" y="0px"
	 viewBox="0 0 259.453 259.453" style="enable-background:new 0 0 259.453 259.453;" xml:space="preserve">
<g>
	<g>
		<g>
			<g id="XMLID_18_">
				<g>
					<path style="fill:#2D213F;" d="M249.372,50.245c5.171,5.236,8.033,12.195,8.033,19.578c0,7.415-2.862,14.342-8.033,19.578
						l-39.025,39.285l42.472,42.765c8.846,8.911,8.846,23.383,0,32.293l-48.651,49.009c-4.293,4.325-9.984,6.699-16.033,6.699
						s-11.74-2.374-16.033-6.699l-42.44-42.765l-38.96,39.22c-5.203,5.236-12.098,8.13-19.448,8.13
						c-7.317,0-14.244-2.894-19.415-8.13L9.984,207.094c-10.699-10.797-10.699-28.358,0-39.155l38.96-39.253L6.634,86.083
						c-8.846-8.911-8.846-23.415,0-32.293l19.74-19.87c4.52-4.585,10.634-6.992,17.074-6.667l52.359-4.813
						c0.488-0.033,0.976-0.033,1.431,0c7.935,0.65,24.001,16.488,24.163,16.651l8.26,8.293L168.655,8.13
						C173.857,2.894,180.753,0,188.103,0s14.244,2.894,19.448,8.13L249.372,50.245z M241.047,191.907
						c2.342-2.374,2.342-6.212,0-8.586l-42.472-42.765l-57.139,57.595l42.44,42.733c2.276,2.309,6.244,2.309,8.521,0
						L241.047,191.907z M240.754,69.823c0-2.927-1.106-5.659-3.155-7.707l-41.822-42.147c-2.049-2.049-4.781-3.187-7.675-3.187
						s-5.626,1.138-7.675,3.187L21.757,179.776c-4.228,4.26-4.228,11.187,0,15.447l41.855,42.147c4.065,4.13,11.22,4.13,15.317,0
						L237.6,77.563C239.648,75.481,240.754,72.75,240.754,69.823z M60.717,116.848l57.172-57.595l-4.781-4.781L84.328,82.961
						c-1.626,1.594-3.707,2.374-5.821,2.374c-2.081,0-4.195-0.781-5.789-2.342l-36.326-35.48L18.407,65.627
						c-2.342,2.374-2.342,6.212,0,8.586L60.717,116.848z M78.474,65.237l22.244-21.984c-2.114-1.659-4.065-3.122-5.366-3.935
						L55.676,42.96L78.474,65.237z"/>
					<path style="fill:#EAEEEF;" d="M241.047,183.321c2.342,2.374,2.342,6.212,0,8.586l-48.651,48.977
						c-2.276,2.309-6.244,2.309-8.521,0l-42.44-42.733l57.139-57.595L241.047,183.321z"/>
					<path style="fill:#F2CE75;" d="M237.6,62.115c2.049,2.049,3.155,4.781,3.155,7.707c0,2.927-1.106,5.659-3.155,7.74
						L78.93,237.371c-4.098,4.13-11.252,4.13-15.317,0l-41.855-42.147c-4.228-4.26-4.228-11.187,0-15.447l158.67-159.808
						c2.049-2.049,4.781-3.187,7.675-3.187s5.626,1.138,7.675,3.187L237.6,62.115z M171.191,128.588
						c0-6.959-5.594-12.586-12.488-12.586s-12.488,5.626-12.488,12.586c0,6.927,5.594,12.553,12.488,12.553
						S171.191,135.515,171.191,128.588z M141.271,158.703c0-6.96-5.594-12.586-12.488-12.586c-6.894,0-12.488,5.626-12.488,12.586
						s5.594,12.586,12.488,12.586C135.678,171.288,141.271,165.662,141.271,158.703z M141.012,98.181
						c0-6.959-5.594-12.586-12.488-12.586c-6.894,0-12.488,5.626-12.488,12.586c0,6.927,5.594,12.586,12.488,12.586
						C135.419,110.767,141.012,105.108,141.012,98.181z M111.093,128.295c0-6.927-5.594-12.553-12.488-12.553
						s-12.488,5.626-12.488,12.553c0,6.96,5.594,12.586,12.488,12.586S111.093,135.255,111.093,128.295z"/>
					<path style="fill:#2D213F;" d="M158.704,116.003c6.894,0,12.488,5.626,12.488,12.586c0,6.927-5.594,12.553-12.488,12.553
						s-12.488-5.626-12.488-12.553C146.215,121.629,151.809,116.003,158.704,116.003z"/>
					<ellipse style="fill:#2D213F;" cx="128.784" cy="158.703" rx="12.488" ry="12.586"/>
					<path style="fill:#2D213F;" d="M128.523,85.595c6.894,0,12.488,5.626,12.488,12.586c0,6.927-5.594,12.586-12.488,12.586
						c-6.894,0-12.488-5.659-12.488-12.586C116.036,91.221,121.63,85.595,128.523,85.595z"/>
					<path style="fill:#EAEEEF;" d="M117.89,59.253l-57.172,57.595l-42.31-42.635c-2.342-2.374-2.342-6.212,0-8.586l17.984-18.114
						l36.326,35.48c1.594,1.561,3.707,2.342,5.789,2.342c2.114,0,4.195-0.781,5.821-2.374l28.781-28.488L117.89,59.253z"/>
					<path style="fill:#2D213F;" d="M98.604,115.742c6.894,0,12.488,5.626,12.488,12.553c0,6.96-5.594,12.586-12.488,12.586
						s-12.488-5.626-12.488-12.586C86.117,121.368,91.71,115.742,98.604,115.742z"/>
					<path style="fill:#C5CBCF;" d="M100.719,43.253L78.474,65.237L55.676,42.96l39.676-3.642
						C96.654,40.131,98.604,41.594,100.719,43.253z"/>
				</g>
			</g>
		</g>
		<polygon style="fill:#C5CBCF;" points="198.574,140.556 141.435,198.151 145.269,202.011 202.635,144.647 		"/>
		<path style="fill:#C5CBCF;" d="M60.717,116.848l57.172-57.595l-3.743-3.743c-16.443,16.443-40.446,40.446-57.367,57.367
			L60.717,116.848z"/>
		<path style="fill:#FEDE94;" d="M84.338,231.924L237.6,77.563c2.049-2.081,3.155-4.813,3.155-7.74c0-2.927-1.106-5.659-3.155-7.707
			l-23.409-23.592c-6.299,0.341-12.488,2.904-17.275,7.691l-56.918,56.915c-1.278,2.995-3.672,5.395-6.657,6.657l-23.148,23.148
			c-1.278,3.239-3.841,5.795-7.06,7.06l-46.297,46.297c-7.496,7.496-7.496,19.652,0,27.149l6.898,6.898
			C69.629,226.236,76.793,230.064,84.338,231.924z M158.704,116.003c6.894,0,12.488,5.626,12.488,12.586
			c0,6.927-5.594,12.553-12.488,12.553s-12.488-5.626-12.488-12.553C146.215,121.629,151.809,116.003,158.704,116.003z
			 M128.784,146.117c6.894,0,12.488,5.626,12.488,12.586s-5.594,12.586-12.488,12.586c-6.894,0-12.488-5.626-12.488-12.586
			S121.89,146.117,128.784,146.117z"/>
	</g>
</g>
<g>
</g>
<g>
</g>
<g>
</g>
<g>
</g>
<g>
</g>
<g>
</g>
<g>
</g>
<g>
</g>
<g>
</g>
<g>
</g>
<g>
</g>
<g>
</g>
<g>
</g>
<g>
</g>
<g>
</g>
</svg>
