<?xml version="1.0" encoding="iso-8859-1"?>
<!-- Generator: Adobe Illustrator 19.0.0, SVG Export Plug-In . SVG Version: 6.00 Build 0)  -->
<svg version="1.1" id="Layer_1" xmlns="http://www.w3.org/2000/svg" xmlns:xlink="http://www.w3.org/1999/xlink" x="0px" y="0px"
	 viewBox="0 0 326.394 326.394" style="enable-background:new 0 0 326.394 326.394;" xml:space="preserve">
<g>
	<g>
		<g>
			<path style="fill:#2D213F;" d="M166.366,155.086c-0.446-0.072-0.891-0.133-1.356-0.133c-30.859,0-55.962-19.291-55.962-42.999
				V8.28c0-4.572-3.805-8.28-8.494-8.28c-4.69,0-8.494,3.707-8.494,8.28v103.67c0,31.471,30.069,57.25,67.969,59.357
				c0.446,0.072,0.891,0.133,1.356,0.133c30.859,0,55.962,19.291,55.962,43.003v103.671c0,4.572,3.805,8.28,8.494,8.28
				c4.69,0,8.494-3.707,8.494-8.28v-103.67C234.332,182.973,204.266,157.194,166.366,155.086z"/>
		</g>
		<g>
			<path style="fill:#2D213F;" d="M126.541,169.311c-0.328-0.153-0.654-0.306-0.979-0.462c-2.68-1.278-5.841-1.067-8.257,0.637
				c-15.447,10.908-25.246,26.999-25.246,44.954v103.228c0,4.124,2.891,7.948,7.067,8.612c5.32,0.846,9.922-3.138,9.922-8.166
				v-103.67c0-12.732,7.249-24.179,18.735-32.056C132.687,179.022,131.959,171.825,126.541,169.311z"/>
		</g>
		<g>
			<path style="fill:#2D213F;" d="M224.413,0.114c-4.176,0.663-7.067,4.488-7.067,8.612v103.228c0,12.41-6.888,23.597-17.877,31.448
				c-4.745,3.389-4.644,10.345,0.452,13.21c0.234,0.13,0.465,0.263,0.699,0.393c2.836,1.61,6.358,1.421,8.995-0.478
				c15.142-10.901,24.719-26.823,24.719-44.573V8.28C234.332,3.252,229.733-0.732,224.413,0.114z"/>
		</g>
		<g>
			<path style="fill:#2D213F;" d="M134.369,37.093h57.614c4.69,0,8.494-3.707,8.494-8.28s-3.802-8.28-8.494-8.28h-57.614
				c-4.69,0-8.494,3.707-8.494,8.28S129.676,37.093,134.369,37.093z"/>
		</g>
		<g>
			<path style="fill:#2D213F;" d="M134.369,122.747h57.614c4.69,0,8.494-3.707,8.494-8.28c0-4.572-3.802-8.28-8.494-8.28h-57.614
				c-4.69,0-8.494,3.707-8.494,8.28S129.676,122.747,134.369,122.747z"/>
		</g>
		<g>
			<path style="fill:#2D213F;" d="M134.369,78.59h57.614c4.69,0,8.494-3.711,8.494-8.283s-3.802-8.28-8.494-8.28h-57.614
				c-4.69,0-8.494,3.707-8.494,8.28S129.676,78.59,134.369,78.59z"/>
		</g>
		<g>
			<path style="fill:#2D213F;" d="M191.98,207.845h-57.611c-4.69,0-8.494,3.707-8.494,8.28s3.802,8.28,8.494,8.28h57.614
				c4.69,0,8.494-3.707,8.494-8.28C200.474,211.553,196.673,207.845,191.98,207.845z"/>
		</g>
		<g>
			<path style="fill:#2D213F;" d="M191.98,293.499h-57.611c-4.69,0-8.494,3.707-8.494,8.28c0,4.572,3.802,8.28,8.494,8.28h57.614
				c4.69,0,8.494-3.707,8.494-8.28C200.474,297.206,196.673,293.499,191.98,293.499z"/>
		</g>
		<g>
			<path style="fill:#2D213F;" d="M191.98,249.342h-57.611c-4.69,0-8.494,3.707-8.494,8.28c0,4.572,3.802,8.28,8.494,8.28h57.614
				c4.69,0,8.494-3.707,8.494-8.28C200.474,253.049,196.673,249.342,191.98,249.342z"/>
		</g>
	</g>
</g>
<g>
</g>
<g>
</g>
<g>
</g>
<g>
</g>
<g>
</g>
<g>
</g>
<g>
</g>
<g>
</g>
<g>
</g>
<g>
</g>
<g>
</g>
<g>
</g>
<g>
</g>
<g>
</g>
<g>
</g>
</svg>
