<?xml version="1.0" encoding="iso-8859-1"?>
<!-- Generator: Adobe Illustrator 19.0.0, SVG Export Plug-In . SVG Version: 6.00 Build 0)  -->
<svg version="1.1" id="Layer_1" xmlns="http://www.w3.org/2000/svg" xmlns:xlink="http://www.w3.org/1999/xlink" x="0px" y="0px"
	 viewBox="0 0 301.275 301.275" style="enable-background:new 0 0 301.275 301.275;" xml:space="preserve">
<g>
	<g>
		<g>
			<g id="XMLID_24_">
				<g>
					<path style="fill:#2D213F;" d="M301.275,98.75v147.028c0,21.366-17.334,38.765-38.602,38.765H38.602
						C17.301,284.543,0,267.144,0,245.778V98.75c0-21.366,17.301-38.733,38.602-38.733h52.294v-34.83
						c0-4.683,3.805-8.455,8.455-8.455h108.685c4.651,0,8.455,3.772,8.455,8.455v34.83h46.18
						C283.941,60.018,301.275,77.384,301.275,98.75z M284.396,245.778v-96.36h-17.594v7.35c0,10.829-8.781,19.643-19.578,19.643
						h-20.813c-10.797,0-19.578-8.813-19.578-19.643v-7.35h-104.49v7.35c0,10.829-8.781,19.643-19.578,19.643H61.92
						c-10.764,0-19.545-8.813-19.545-19.643v-7.35H16.878v96.36c0,12.033,9.724,21.822,21.724,21.822h224.07
						C274.64,267.599,284.396,257.81,284.396,245.778z M284.396,132.474V98.75c0-12-9.756-21.789-21.724-21.789H38.602
						c-12,0-21.724,9.789-21.724,21.789v33.724h25.496v-8.13c0-10.83,8.781-19.643,19.545-19.643h20.846
						c10.797,0,19.578,8.813,19.578,19.643v8.13h104.49v-8.13c0-10.83,8.781-19.643,19.578-19.643h20.813
						c10.797,0,19.578,8.813,19.578,19.643v8.13H284.396z M249.924,156.768v-32.423c0-1.496-1.203-2.699-2.699-2.699h-20.813
						c-1.496,0-2.699,1.203-2.699,2.699v32.423c0,1.496,1.203,2.699,2.699,2.699h20.813
						C248.721,159.467,249.924,158.264,249.924,156.768z M199.582,60.018V33.676h-91.774v26.342
						C107.808,60.018,199.582,60.018,199.582,60.018z M85.465,156.768v-32.423c0-1.496-1.203-2.699-2.699-2.699H61.92
						c-1.463,0-2.667,1.203-2.667,2.699v32.423c0,1.496,1.203,2.699,2.667,2.699h20.846
						C84.262,159.467,85.465,158.264,85.465,156.768z"/>
					<path style="fill:#C5CBCF;" d="M284.396,149.418v96.36c0,12.033-9.756,21.822-21.724,21.822H38.602
						c-12,0-21.724-9.789-21.724-21.822v-96.36h25.496v7.35c0,10.829,8.781,19.643,19.545,19.643h20.846
						c10.797,0,19.578-8.813,19.578-19.643v-7.35h104.49v7.35c0,10.829,8.781,19.643,19.578,19.643h20.813
						c10.797,0,19.578-8.813,19.578-19.643v-7.35H284.396z M197.305,222.363v-33.887h-29.789v-29.887h-33.757v29.887h-29.822v33.887
						h29.822v29.919h33.757v-29.919H197.305z"/>
					<path style="fill:#454D5B;" d="M284.396,98.75v33.724h-17.594v-8.13c0-10.83-8.781-19.643-19.578-19.643h-20.813
						c-10.797,0-19.578,8.813-19.578,19.643v8.13h-104.49v-8.13c0-10.83-8.781-19.643-19.578-19.643H61.92
						c-10.764,0-19.545,8.813-19.545,19.643v8.13H16.878V98.75c0-12,9.724-21.789,21.724-21.789h224.07
						C274.64,76.961,284.396,86.75,284.396,98.75z"/>
					<path style="fill:#454D5B;" d="M249.924,124.344v32.423c0,1.496-1.203,2.699-2.699,2.699h-20.813
						c-1.496,0-2.699-1.203-2.699-2.699v-32.423c0-1.496,1.203-2.699,2.699-2.699h20.813
						C248.721,121.645,249.924,122.848,249.924,124.344z"/>
					<polygon style="fill:#2D213F;" points="197.305,188.476 197.305,222.363 167.516,222.363 167.516,252.282 133.759,252.282 
						133.759,222.363 103.937,222.363 103.937,188.476 133.759,188.476 133.759,158.589 167.516,158.589 167.516,188.476 					"/>
					<path style="fill:#454D5B;" d="M85.465,124.344v32.423c0,1.496-1.203,2.699-2.699,2.699H61.92
						c-1.463,0-2.667-1.203-2.667-2.699v-32.423c0-1.496,1.203-2.699,2.667-2.699h20.846
						C84.262,121.645,85.465,122.848,85.465,124.344z"/>
				</g>
			</g>
		</g>
		<path style="fill:#EAEEEF;" d="M266.803,156.768c0,10.83-8.781,19.643-19.578,19.643h-20.813
			c-10.797,0-19.578-8.813-19.578-19.643v-7.35h-104.49v7.35c0,10.83-8.781,19.643-19.578,19.643H61.92
			c-7.499,0-14.026-4.283-17.301-10.543c-0.02,0.706-0.107,1.398-0.107,2.111v19.691c0,33.747,27.36,61.107,61.107,61.107h28.14
			v-26.414h-29.822v-33.887h29.822v-29.887h33.757v29.887h29.789v33.887h-29.789v26.414h73.894c17.031,0,32.313-7.337,42.986-18.97
			v-80.389h-17.594C266.803,149.418,266.803,156.768,266.803,156.768z"/>
		<path style="fill:#505967;" d="M284.396,132.474v-14.833c-10.872-12.007-26.531-19.597-44.004-19.597H114.445
			c-10.686,0-20.771,2.465-29.828,6.751c9.932,0.94,17.727,9.347,17.727,19.548v8.13h104.49v-8.13
			c0-10.83,8.781-19.643,19.578-19.643h20.813c10.797,0,19.578,8.813,19.578,19.643v8.13L284.396,132.474L284.396,132.474z"/>
	</g>
</g>
<g>
</g>
<g>
</g>
<g>
</g>
<g>
</g>
<g>
</g>
<g>
</g>
<g>
</g>
<g>
</g>
<g>
</g>
<g>
</g>
<g>
</g>
<g>
</g>
<g>
</g>
<g>
</g>
<g>
</g>
</svg>
