<?xml version="1.0" encoding="iso-8859-1"?>
<!-- Generator: Adobe Illustrator 19.0.0, SVG Export Plug-In . SVG Version: 6.00 Build 0)  -->
<svg version="1.1" id="Layer_1" xmlns="http://www.w3.org/2000/svg" xmlns:xlink="http://www.w3.org/1999/xlink" x="0px" y="0px"
	 viewBox="0 0 318.039 318.039" style="enable-background:new 0 0 318.039 318.039;" xml:space="preserve">
<g>
	<g>
		<g>
			<g id="XMLID_32_">
				<g>
					<path style="fill:#2D213F;" d="M283.038,169.061c6.179,7.512,9.886,17.171,9.886,27.675c0,24.001-19.383,43.513-43.188,43.513
						c-0.033,0-0.033,0-0.033,0c-3.512,3.447-7.155,6.732-11.09,9.691c-6.927,5.236-14.342,9.561-22.114,12.976h46.7
						c4.618,0,8.358,3.772,8.358,8.423v38.277c0,4.651-3.74,8.423-8.358,8.423H82.611c-4.618,0-8.358-3.772-8.358-8.423V271.34
						c0-4.65,3.74-8.423,8.358-8.423h45.139c-27.123-11.968-48.554-34.57-59.156-62.538h-35.09c-4.618,0-8.39-3.772-8.39-8.423
						v-33.497c0-4.651,3.772-8.39,8.39-8.39H139.62c4.618,0,8.358,3.74,8.358,8.39v33.497c0,4.651-3.74,8.423-8.358,8.423h-16.651
						c11.577,14.504,29.269,23.838,49.139,23.838h0.553c12.976,0,25.594-4.26,36.619-12.26c-1.756-4.748-2.764-9.854-2.764-15.22
						c0-18.927,12.098-35.025,28.944-41.009c-2.309-32.489-29.106-58.375-61.953-58.896l-21.171,24.423
						c-3.024,3.512-8.293,3.87-11.773,0.813l-2.504-2.179l-10.537,12.163c-3.024,3.512-8.325,3.87-11.805,0.813l-17.594-15.447
						c-3.48-3.057-3.87-8.39-0.813-11.903l10.537-12.163l-2.472-2.146c-3.48-3.057-3.837-8.39-0.813-11.903l56.814-65.595
						c3.057-3.48,8.325-3.837,11.805-0.813l2.472,2.179l10.569-12.195c3.057-3.48,8.325-3.87,11.805-0.813l17.626,15.48
						c3.48,3.057,3.837,8.39,0.813,11.87l-10.569,12.195l2.472,2.179c3.35,2.927,3.772,7.903,1.138,11.415
						c42.993,15.382,73.92,56.652,73.92,105.14C283.428,163.272,283.266,166.167,283.038,169.061z M276.208,196.736
						c0-14.7-11.87-26.667-26.472-26.667c-14.602,0-26.505,11.968-26.505,26.667s11.903,26.667,26.505,26.667
						C264.338,223.404,276.208,211.436,276.208,196.736z M254.842,301.194v-21.431H90.969v21.431H254.842z M252.078,153.353
						c5.106,0.293,9.984,1.398,14.472,3.317c-1.626-41.92-30.342-76.782-69.042-87.547l-10.602,12.26
						C221.866,87.823,248.956,117.157,252.078,153.353z M228.598,236.477c0.455-0.358,0.878-0.748,1.333-1.106
						c-4.455-2.342-8.455-5.431-11.838-9.106c-13.691,9.659-29.301,14.765-45.367,14.765h-0.618
						c-29.659,0-55.448-16.391-69.205-40.651H86.838c14.927,32.456,47.481,55.058,85.27,55.058
						C192.662,255.437,212.175,248.9,228.598,236.477z M193.28,30.554l5.073-5.854l-5.008-4.39l-5.073,5.854L193.28,30.554z
						 M163.523,82.75l27.545-31.806l-22.569-19.805l-27.545,31.806L163.523,82.75z M145.246,103.856l7.285-8.39l-22.57-19.838
						l-7.285,8.423L145.246,103.856z M131.262,183.533v-16.651h-89.4v16.651H131.262z M120.433,114.653l5.041-5.821l-5.041-4.39
						l-5.041,5.821L120.433,114.653z"/>
					<path style="fill:#505967;" d="M249.736,170.069c14.602,0,26.472,11.968,26.472,26.667s-11.87,26.667-26.472,26.667
						c-14.602,0-26.505-11.968-26.505-26.667S235.134,170.069,249.736,170.069z M264.598,196.736c0-8.228-6.667-14.96-14.862-14.96
						c-8.195,0-14.862,6.732-14.862,14.96c0,8.26,6.667,14.96,14.862,14.96C257.932,211.696,264.598,204.997,264.598,196.736z"/>
					<path style="fill:#2D213F;" d="M249.736,181.777c8.195,0,14.862,6.732,14.862,14.96c0,8.26-6.667,14.96-14.862,14.96
						c-8.195,0-14.862-6.699-14.862-14.96C234.874,188.509,241.541,181.777,249.736,181.777z M253.606,196.736
						c0-2.146-1.756-3.903-3.87-3.903c-2.146,0-3.87,1.756-3.87,3.903c0,2.146,1.724,3.903,3.87,3.903
						C251.85,200.639,253.606,198.883,253.606,196.736z"/>
					<g>
						<rect x="90.969" y="279.763" style="fill:#505967;" width="163.873" height="21.431"/>
					</g>
					<path style="fill:#EAEEEF;" d="M266.55,156.67c-4.488-1.919-9.366-3.024-14.472-3.317
						c-3.122-36.196-30.212-65.53-65.172-71.969l10.602-12.26C236.208,79.888,264.924,114.751,266.55,156.67z"/>
					<path style="fill:#EAEEEF;" d="M249.736,192.834c2.114,0,3.87,1.756,3.87,3.903c0,2.146-1.756,3.903-3.87,3.903
						c-2.146,0-3.87-1.756-3.87-3.903S247.59,192.834,249.736,192.834z"/>
					<path style="fill:#EAEEEF;" d="M229.931,235.371c-0.455,0.358-0.878,0.748-1.333,1.106
						c-16.423,12.423-35.936,18.96-56.489,18.96c-37.789,0-70.343-22.602-85.27-55.058h16.065
						c13.756,24.261,39.546,40.651,69.205,40.651h0.618c16.065,0,31.675-5.106,45.367-14.765
						C221.476,229.94,225.476,233.03,229.931,235.371z"/>
					<polygon style="fill:#EAEEEF;" points="198.353,24.7 193.28,30.554 188.272,26.164 193.345,20.31 					"/>
					<polygon style="fill:#EAEEEF;" points="191.068,50.945 163.523,82.75 140.953,62.945 168.499,31.139 					"/>
					<polygon style="fill:#505967;" points="152.531,95.466 145.246,103.856 122.677,84.051 129.961,75.628 					"/>
					<rect x="41.862" y="166.882" style="fill:#505967;" width="89.4" height="16.651"/>
					<polygon style="fill:#EAEEEF;" points="125.473,108.832 120.433,114.653 115.392,110.263 120.433,104.442 					"/>
				</g>
			</g>
		</g>
		<path style="fill:#C5CBCF;" d="M140.953,62.945l10.007,8.781c6.836-19.051,17.467-31.298,22.456-36.274l-4.914-4.312
			L140.953,62.945z"/>
		<path style="fill:#454D5B;" d="M146.225,89.928l-16.267-14.296l-7.285,8.423l22.176,19.457
			C145.045,98.75,145.513,94.217,146.225,89.928z"/>
		<path style="fill:#454D5B;" d="M254.842,301.194v-21.431h-12.791c-26.56,11.899-82.532,20.849-134.949,21.431H254.842z"/>
	</g>
</g>
<g>
</g>
<g>
</g>
<g>
</g>
<g>
</g>
<g>
</g>
<g>
</g>
<g>
</g>
<g>
</g>
<g>
</g>
<g>
</g>
<g>
</g>
<g>
</g>
<g>
</g>
<g>
</g>
<g>
</g>
</svg>
