<?xml version="1.0" encoding="iso-8859-1"?>
<!-- Generator: Adobe Illustrator 19.0.0, SVG Export Plug-In . SVG Version: 6.00 Build 0)  -->
<svg version="1.1" id="Layer_1" xmlns="http://www.w3.org/2000/svg" xmlns:xlink="http://www.w3.org/1999/xlink" x="0px" y="0px"
	 viewBox="0 0 267.811 267.811" style="enable-background:new 0 0 267.811 267.811;" xml:space="preserve">
<g>
	<g>
		<g>
			<g id="XMLID_23_">
				<g>
					<path style="fill:#2D213F;" d="M239.45,11.285c8.033,8.488,12.26,20.423,11.545,32.781l-8.228,146.215
						c-1.236,21.789-17.496,38.863-37.009,38.863h-0.683v30.407c0,4.553-3.707,8.26-8.293,8.26c-4.553,0-8.26-3.707-8.26-8.26
						v-30.407h-0.683c-19.513,0-35.773-17.074-37.009-38.863l-8.228-146.215c-0.715-12.358,3.512-24.293,11.545-32.781
						C161.042,4,170.083,0,179.579,0h34.44C223.515,0,232.556,4,239.45,11.285z M234.475,43.155
						c0.455-7.838-2.114-15.317-7.025-20.521c-3.74-3.968-8.521-6.146-13.431-6.146h-34.44c-4.911,0-9.691,2.179-13.431,6.146
						c-4.911,5.203-7.48,12.683-7.057,20.521l8.26,146.215c0.715,13.041,9.724,23.253,20.488,23.253h17.919
						c10.764,0,19.74-10.212,20.488-23.253L234.475,43.155z"/>
					<path style="fill:#454D5B;" d="M227.45,22.635c4.911,5.203,7.48,12.683,7.025,20.521l-8.228,146.215
						c-0.748,13.041-9.724,23.253-20.488,23.253H187.84c-10.764,0-19.773-10.212-20.488-23.253l-8.26-146.215
						c-0.423-7.838,2.146-15.317,7.057-20.521c3.74-3.968,8.521-6.146,13.431-6.146h34.44
						C218.93,16.488,223.71,18.667,227.45,22.635z M205.076,188.329V33.269c0-4.553-3.707-8.26-8.293-8.26
						c-4.553,0-8.26,3.707-8.26,8.26v155.06c0,4.553,3.707,8.26,8.26,8.26C201.368,196.59,205.076,192.882,205.076,188.329z"/>
					<path style="fill:#2D213F;" d="M205.076,33.269v155.06c0,4.553-3.707,8.26-8.293,8.26c-4.553,0-8.26-3.707-8.26-8.26V33.269
						c0-4.553,3.707-8.26,8.26-8.26C201.368,25.009,205.076,28.716,205.076,33.269z"/>
					<path style="fill:#2D213F;" d="M113.692,11.285c8.033,8.488,12.228,20.423,11.545,32.781l-8.26,146.215
						c-1.236,21.789-17.464,38.863-36.976,38.863h-0.715v30.407c0,4.553-3.707,8.26-8.26,8.26c-4.585,0-8.26-3.707-8.26-8.26
						v-30.407h-0.715c-19.513,0-35.773-17.074-36.976-38.863L16.811,44.066c-0.683-12.358,3.512-24.293,11.545-32.781
						C35.251,4,44.292,0,53.82,0h34.407C97.756,0,106.797,4,113.692,11.285z M108.716,43.155c0.423-7.838-2.146-15.317-7.057-20.521
						c-3.74-3.968-8.521-6.146-13.431-6.146H53.82c-4.943,0-9.691,2.179-13.431,6.146c-4.943,5.203-7.512,12.683-7.057,20.521
						L41.56,189.37c0.748,13.041,9.756,23.253,20.488,23.253H80c10.732,0,19.74-10.212,20.456-23.253L108.716,43.155z"/>
					<path style="fill:#C5CBCF;" d="M101.659,22.635c4.911,5.203,7.48,12.683,7.057,20.521l-8.26,146.215
						c-0.715,13.041-9.724,23.253-20.456,23.253H62.048c-10.732,0-19.74-10.212-20.488-23.253L33.332,43.155
						c-0.455-7.838,2.114-15.317,7.057-20.521c3.74-3.968,8.488-6.146,13.431-6.146h34.407
						C93.138,16.488,97.919,18.667,101.659,22.635z M92.423,100.067V44.521c0-4.553-3.707-8.26-8.26-8.26H57.885
						c-4.553,0-8.26,3.707-8.26,8.26v55.546c0,4.553,3.707,8.26,8.26,8.26h26.277C88.715,108.328,92.423,104.62,92.423,100.067z"/>
					<path style="fill:#2D213F;" d="M92.423,44.521v55.546c0,4.553-3.707,8.26-8.26,8.26H57.885c-4.553,0-8.26-3.707-8.26-8.26
						V44.521c0-4.553,3.707-8.26,8.26-8.26h26.277C88.715,36.261,92.423,39.968,92.423,44.521z M75.87,91.807V52.782h-9.724v39.025
						C66.146,91.807,75.87,91.807,75.87,91.807z"/>
					<rect x="66.146" y="52.782" style="fill:#454D5B;" width="9.724" height="39.025"/>
				</g>
			</g>
		</g>
		<path style="fill:#EAEEEF;" d="M60.744,21.649c-6.706,0-12.14,5.434-12.14,12.14v142.706c0,12.117,9.821,21.939,21.939,21.939
			h12.895c5.86,0,11.376-1.428,16.267-3.909c0.39-1.655,0.654-3.376,0.751-5.155l8.26-146.215
			c0.276-5.158-0.761-10.143-2.888-14.443c-5.799-4.413-13.008-7.06-20.856-7.06H60.744V21.649z M92.423,44.521v55.546
			c0,4.553-3.707,8.26-8.26,8.26H57.885c-4.553,0-8.26-3.707-8.26-8.26V44.521c0-4.553,3.707-8.26,8.26-8.26h26.277
			C88.715,36.261,92.423,39.968,92.423,44.521z"/>
		<path style="fill:#505967;" d="M196.838,198.434h12.895c5.636,0,10.937-1.35,15.685-3.655c0.426-1.733,0.722-3.538,0.829-5.408
			l8.228-146.215c0.312-5.385-0.833-10.579-3.151-15.005c-5.659-4.062-12.56-6.501-20.056-6.501h-24.225
			c-6.706,0-12.14,5.434-12.14,12.14v142.706C174.899,188.612,184.724,198.434,196.838,198.434z M188.522,33.269
			c0-4.553,3.707-8.26,8.26-8.26c4.585,0,8.293,3.707,8.293,8.26v155.06c0,4.553-3.707,8.26-8.293,8.26
			c-4.553,0-8.26-3.707-8.26-8.26V33.269z"/>
	</g>
</g>
<g>
</g>
<g>
</g>
<g>
</g>
<g>
</g>
<g>
</g>
<g>
</g>
<g>
</g>
<g>
</g>
<g>
</g>
<g>
</g>
<g>
</g>
<g>
</g>
<g>
</g>
<g>
</g>
<g>
</g>
</svg>
