<?xml version="1.0" encoding="iso-8859-1"?>
<!-- Generator: Adobe Illustrator 19.0.0, SVG Export Plug-In . SVG Version: 6.00 Build 0)  -->
<svg version="1.1" id="Layer_1" xmlns="http://www.w3.org/2000/svg" xmlns:xlink="http://www.w3.org/1999/xlink" x="0px" y="0px"
	 viewBox="0 0 284.559 284.559" style="enable-background:new 0 0 284.559 284.559;" xml:space="preserve">
<g>
	<g>
		<g>
			<g id="XMLID_21_">
				<g>
					<path style="fill:#2D213F;" d="M282.071,56.817c3.317,3.285,3.317,8.683,0,12L262.688,88.2c-3.317,3.317-8.716,3.317-12.033,0
						l-11.447-11.447L226.33,89.631l13.952,13.952c3.317,3.317,3.317,8.683,0,12l-122.8,122.864c-12,12-31.545,12-43.546,0
						l-7.935-7.935l-51.513,51.546c-3.317,3.317-8.683,3.317-12,0s-3.317-8.683,0-12l51.513-51.546l-7.903-7.903
						c-12-12.033-12-31.578,0-43.611l122.8-122.831c3.317-3.317,8.683-3.317,12,0l16.651,16.651l12.878-12.878l-14.049-14.049
						c-3.317-3.317-3.317-8.683,0-12l19.383-19.415c3.317-3.285,8.683-3.285,12,0L282.071,56.817z M264.054,62.801l-42.277-42.31
						l-7.382,7.415l42.277,42.277L264.054,62.801z M214.33,77.631l12.293-12.293l-4.813-4.781l-12.26,12.26L214.33,77.631z
						 M180.866,150.998l41.432-41.399l-47.416-47.416l-24.033,24.033c12.521,14.309,15.513,26.602,18.147,37.594
						C171.207,133.079,173.353,141.339,180.866,150.998z M105.482,226.415l63.253-63.286c-10.927-13.334-13.756-24.944-16.228-35.35
						c-2.407-9.984-4.553-18.83-13.659-29.529l-80.75,80.782c-5.398,5.366-5.398,14.147,0,19.545l27.838,27.838
						C91.335,231.813,100.083,231.813,105.482,226.415z"/>
					<polygon style="fill:#454D5B;" points="221.777,20.491 264.054,62.801 256.672,70.183 214.395,27.906 					"/>
					<path style="fill:#EAEEEF;" d="M222.298,109.599l-41.432,41.399c-7.512-9.659-9.659-17.919-11.87-27.188
						c-2.634-10.992-5.626-23.285-18.147-37.594l24.033-24.033L222.298,109.599z"/>
					<path style="fill:#AAE1E9;" d="M168.735,163.129l-63.253,63.286c-5.398,5.398-14.147,5.398-19.545,0l-27.838-27.838
						c-5.398-5.398-5.398-14.179,0-19.545l80.75-80.782c9.106,10.699,11.252,19.545,13.659,29.529
						C154.979,138.185,157.808,149.795,168.735,163.129z M151.337,161.535c3.317-3.317,3.317-8.683,0-12l-13.497-13.496
						c-3.317-3.317-8.683-3.317-12,0c-3.317,3.285-3.317,8.683,0,12l13.496,13.496C142.653,164.852,148.019,164.852,151.337,161.535
						z M126.198,186.674c3.317-3.317,3.317-8.683,0-12l-13.496-13.496c-3.317-3.317-8.683-3.317-12,0s-3.317,8.683,0,12
						l13.496,13.496C117.515,189.991,122.881,189.991,126.198,186.674z M101.449,211.455c3.317-3.317,3.317-8.716,0-12.033
						l-13.496-13.496c-3.317-3.317-8.683-3.317-12,0s-3.317,8.683,0,12l13.496,13.529
						C92.766,214.772,98.132,214.772,101.449,211.455z"/>
					<path style="fill:#2D213F;" d="M151.337,149.535c3.317,3.317,3.317,8.683,0,12s-8.683,3.317-12,0l-13.497-13.496
						c-3.317-3.317-3.317-8.716,0-12c3.317-3.317,8.683-3.317,12,0L151.337,149.535z"/>
					<path style="fill:#2D213F;" d="M126.198,174.674c3.317,3.317,3.317,8.683,0,12s-8.683,3.317-12,0l-13.496-13.496
						c-3.317-3.317-3.317-8.683,0-12s8.683-3.317,12,0L126.198,174.674z"/>
					<path style="fill:#2D213F;" d="M101.449,199.422c3.317,3.317,3.317,8.716,0,12.033s-8.683,3.317-12,0l-13.496-13.529
						c-3.317-3.317-3.317-8.683,0-12s8.683-3.317,12,0L101.449,199.422z"/>
				</g>
			</g>
		</g>
		<path style="fill:#C5CBCF;" d="M172.706,136.604c1.772,4.644,4.218,9.327,8.16,14.397l41.432-41.399L179.019,66.32l13.743,26.622
			c4.904,9.496,3.034,21.083-4.608,28.557L172.706,136.604z"/>
		<path style="fill:#92C1CA;" d="M168.735,163.129c-3.951-4.823-6.833-9.415-9.034-13.812l-5.919,5.785
			c0.117,2.312-0.676,4.664-2.446,6.433c-1.815,1.815-4.244,2.602-6.615,2.429l-16.127,15.769c0.276,2.475-0.498,5.041-2.397,6.94
			c-1.948,1.948-4.602,2.719-7.135,2.381l-1.506,1.473c-4.615,4.514-10.485,7.353-16.709,8.296l0.602,0.602
			c3.317,3.317,3.317,8.716,0,12.033s-8.683,3.317-12,0l-13.496-13.529c-1.19-1.19-1.935-2.647-2.27-4.176
			c-5.6-2.14-11.916-5.002-19.018-8.82c-1.363,4.686-0.26,9.948,3.434,13.643l27.838,27.838c5.398,5.398,14.147,5.398,19.545,0
			L168.735,163.129z"/>
	</g>
</g>
<g>
</g>
<g>
</g>
<g>
</g>
<g>
</g>
<g>
</g>
<g>
</g>
<g>
</g>
<g>
</g>
<g>
</g>
<g>
</g>
<g>
</g>
<g>
</g>
<g>
</g>
<g>
</g>
<g>
</g>
</svg>
