<?xml version="1.0" encoding="iso-8859-1"?>
<!-- Generator: Adobe Illustrator 19.0.0, SVG Export Plug-In . SVG Version: 6.00 Build 0)  -->
<svg version="1.1" id="Layer_1" xmlns="http://www.w3.org/2000/svg" xmlns:xlink="http://www.w3.org/1999/xlink" x="0px" y="0px"
	 viewBox="0 0 343.129 343.129" style="enable-background:new 0 0 343.129 343.129;" xml:space="preserve">
<g>
	<g>
		<g>
			<g id="XMLID_38_">
				<g>
					<path style="fill:#2D213F;" d="M326.397,117.954v69.595c0,4.618-3.772,8.358-8.455,8.358h-26.635v78.831
						c0,14.96-10.179,27.578-24.001,31.48v28.553c0,4.618-3.772,8.358-8.423,8.358h-40.326c-4.65,0-8.423-3.74-8.423-8.358v-27.318
						h-75.189v27.318c0,4.618-3.772,8.358-8.455,8.358H86.197c-4.683,0-8.455-3.74-8.455-8.358v-28.066
						c-14.797-3.22-25.952-16.326-25.952-31.968v-78.831H25.155c-4.651,0-8.423-3.74-8.423-8.358v-69.595
						c0-4.618,3.772-8.358,8.423-8.358H51.79v-24.52c0-18.017,14.797-32.716,32.976-32.716h43.285V25.757
						C128.052,11.545,139.694,0,154.036,0h35.058c14.309,0,25.952,11.545,25.952,25.757v26.602h43.286
						c18.179,0,32.976,14.7,32.976,32.716v24.521h26.635C322.625,109.596,326.397,113.336,326.397,117.954z M309.519,179.191
						v-52.879h-18.212v52.879H309.519z M274.461,274.738v-79.514H68.636v79.514c0,8.813,7.252,16,16.13,16h173.565
						C267.242,290.738,274.461,283.551,274.461,274.738z M274.461,178.508V85.075c0-8.813-7.22-15.968-16.13-15.968H84.766
						c-8.878,0-16.13,7.155-16.13,15.968v93.433H274.461z M198.199,52.359V25.757c0-4.976-4.098-9.041-9.106-9.041h-35.058
						c-5.041,0-9.106,4.065-9.106,9.041v26.602H198.199z M51.79,179.191v-52.879H33.578v52.879H51.79z"/>
					<path style="fill:#C5CBCF;" d="M274.461,195.224v79.514c0,8.813-7.22,16-16.13,16H84.766c-8.878,0-16.13-7.187-16.13-16
						v-79.514H274.461z M271.502,243.42c0-14.895-12.163-26.96-27.188-26.96c-14.992,0-27.188,12.065-27.188,26.96
						s12.195,26.96,27.188,26.96C259.339,270.38,271.502,258.315,271.502,243.42z M206.883,252.949v-25.074h-20.944v-20.781H160.67
						v20.781h-20.944v25.074h20.944v20.781h25.269v-20.781H206.883z M131.239,243.42c0-14.895-12.163-26.96-27.188-26.96
						c-14.992,0-27.188,12.065-27.188,26.96s12.195,26.96,27.188,26.96C119.076,270.38,131.239,258.315,131.239,243.42z"/>
					<path style="fill:#AAE1E9;" d="M274.461,85.075v93.433H68.636V85.075c0-8.813,7.252-15.968,16.13-15.968h173.565
						C267.242,69.107,274.461,76.262,274.461,85.075z"/>
					<path style="fill:#2D213F;" d="M244.314,216.46c15.025,0,27.188,12.065,27.188,26.96c0,14.895-12.163,26.96-27.188,26.96
						c-14.992,0-27.188-12.065-27.188-26.96C217.127,228.525,229.322,216.46,244.314,216.46z"/>
					<polygon style="fill:#2D213F;" points="206.883,227.875 206.883,252.949 185.939,252.949 185.939,273.73 160.67,273.73 
						160.67,252.949 139.727,252.949 139.727,227.875 160.67,227.875 160.67,207.094 185.939,207.094 185.939,227.875 					"/>
					<path style="fill:#EF685E;" d="M198.199,25.757v26.602H144.93V25.757c0-4.976,4.065-9.041,9.106-9.041h35.058
						C194.102,16.716,198.199,20.781,198.199,25.757z"/>
					<path style="fill:#F47C6D;" d="M190.791,39.546v-6.381c0-4.976-4.098-9.041-9.106-9.041h-35.058
						c-0.53,0-1.041,0.068-1.548,0.156c-0.081,0.485-0.15,0.972-0.15,1.476v26.602h41.279
						C189.071,48.869,190.791,44.411,190.791,39.546z"/>
					<path style="fill:#2D213F;" d="M104.051,216.46c15.025,0,27.188,12.065,27.188,26.96c0,14.895-12.163,26.96-27.188,26.96
						c-14.992,0-27.188-12.065-27.188-26.96C76.863,228.525,89.059,216.46,104.051,216.46z"/>
				</g>
			</g>
		</g>
		<path style="fill:#92C1CA;" d="M69.927,178.508h204.535V85.075c0-2.881-0.833-5.545-2.182-7.88
			C241.059,109.596,173.441,166.839,69.927,178.508z"/>
		<path style="fill:#EAEEEF;" d="M68.636,271.323c8.029,4.569,17.298,7.216,27.197,7.216h110.88
			c10.556,0,20.235-3.759,27.776-10.003c-10.143-3.909-17.363-13.665-17.363-25.113c0-14.895,12.195-26.96,27.188-26.96
			c2.052,0,4.046,0.244,5.968,0.673v-11.353c0-3.987-1.392-7.62-3.646-10.556h-178V271.323z M139.727,227.875h20.944v-20.781h25.269
			v20.781h20.944v25.074H185.94v20.781h-25.27v-20.781h-20.944v-25.074H139.727z M104.051,216.46
			c15.025,0,27.188,12.065,27.188,26.96c0,14.895-12.163,26.96-27.188,26.96c-14.992,0-27.188-12.065-27.188-26.96
			C76.863,228.525,89.059,216.46,104.051,216.46z"/>
	</g>
</g>
<g>
</g>
<g>
</g>
<g>
</g>
<g>
</g>
<g>
</g>
<g>
</g>
<g>
</g>
<g>
</g>
<g>
</g>
<g>
</g>
<g>
</g>
<g>
</g>
<g>
</g>
<g>
</g>
<g>
</g>
</svg>
