<?xml version="1.0" encoding="iso-8859-1"?>
<!-- Generator: Adobe Illustrator 19.0.0, SVG Export Plug-In . SVG Version: 6.00 Build 0)  -->
<svg version="1.1" id="Layer_1" xmlns="http://www.w3.org/2000/svg" xmlns:xlink="http://www.w3.org/1999/xlink" x="0px" y="0px"
	 viewBox="0 0 301.29 301.29" style="enable-background:new 0 0 301.29 301.29;" xml:space="preserve">
<g>
	<g>
		<g id="XMLID_29_">
			<g>
				<path style="fill:#2D213F;" d="M301.29,39.245v43.806c0,4.683-3.707,8.488-8.293,8.488h-4.878v144.068
					c0,26.992-21.399,48.944-47.741,48.944c-8.813,0-17.041-2.504-24.131-6.797H20.991c-8.195,0-15.48-4.716-18.96-12.293
					c-3.512-7.577-2.407-16.326,2.829-22.765L74,157.589c0.65-0.813,1.008-1.821,1.008-2.829V38.139
					c0-11.805,9.431-21.399,20.976-21.399h48.912c11.577,0,20.976,9.594,20.976,21.399v112.458c0,1.041,0.358,2.049,1.008,2.829
					l25.724,31.675V91.539H186.1c-4.585,0-8.293-3.805-8.293-8.488V39.245c0-4.683,3.707-8.488,8.293-8.488h106.897
					C297.582,30.757,301.29,34.562,301.29,39.245z M284.736,74.563V47.7H194.36v26.862L284.736,74.563L284.736,74.563z
					 M271.565,235.607v-15.382c-17.009-1.496-26.862-7.968-35.676-13.756c-7.773-5.106-14.732-9.626-26.732-10.927v9.951
					l30.245,37.204c5.236,6.439,6.342,15.187,2.829,22.765c-0.325,0.715-0.748,1.398-1.138,2.081
					C257.972,267.152,271.565,253.006,271.565,235.607z M271.565,203.151V91.539h-62.408v86.896
					c17.041,1.496,26.895,7.968,35.676,13.756C252.638,197.33,259.598,201.818,271.565,203.151z M227.174,258.242
					c0.358-0.748,1.008-2.764-0.585-4.716l-27.708-34.115c-30.407-1.594-48.359-7.187-65.725-12.618
					c-18.244-5.724-35.643-11.155-67.644-12.163l-47.838,58.896c-1.594,1.951-0.943,3.968-0.618,4.716
					c0.358,0.78,1.463,2.537,3.935,2.537h202.248C225.743,260.778,226.849,259.022,227.174,258.242z M184.051,201.167
					l-29.984-36.911c-3.122-3.837-4.813-8.683-4.813-13.659V38.139c0-2.439-1.951-4.423-4.358-4.423H95.984
					c-2.407,0-4.358,1.984-4.358,4.423v116.62c0,4.976-1.691,9.821-4.813,13.659l-8.065,9.919
					c26.57,2.016,43.188,7.187,59.286,12.228C151.693,194.826,164.896,198.923,184.051,201.167z"/>
				<rect x="194.361" y="47.7" style="fill:#454D5B;" width="90.376" height="26.862"/>
				<path style="fill:#AAE1E9;" d="M271.565,220.225v15.382c0,17.399-13.594,31.545-30.472,31.936
					c0.39-0.683,0.813-1.366,1.138-2.081c3.512-7.577,2.407-16.326-2.829-22.765l-30.245-37.204v-9.951
					c12,1.301,18.96,5.821,26.732,10.927C244.703,212.257,254.557,218.729,271.565,220.225z"/>
				<path style="fill:#EAEEEF;" d="M271.565,91.539v111.612c-11.968-1.333-18.927-5.821-26.732-10.96
					c-8.781-5.789-18.635-12.26-35.676-13.756V91.539C209.158,91.539,271.565,91.539,271.565,91.539z"/>
				<path style="fill:#F47C6D;" d="M226.589,253.526c1.594,1.951,0.943,3.968,0.585,4.716c-0.325,0.78-1.431,2.537-3.935,2.537
					H20.991c-2.472,0-3.577-1.756-3.935-2.537c-0.325-0.748-0.976-2.764,0.618-4.716l47.838-58.896
					c32.001,1.008,49.399,6.439,67.644,12.163c17.366,5.431,35.318,11.025,65.725,12.618L226.589,253.526z"/>
				<path style="fill:#EAEEEF;" d="M154.067,164.256l29.984,36.911c-19.155-2.244-32.358-6.342-46.017-10.602
					c-16.098-5.041-32.716-10.212-59.286-12.228l8.065-9.919c3.122-3.837,4.813-8.683,4.813-13.659V38.139
					c0-2.439,1.951-4.423,4.358-4.423h48.912c2.407,0,4.358,1.984,4.358,4.423v112.458
					C149.254,155.573,150.945,160.418,154.067,164.256z"/>
			</g>
		</g>
		<path style="fill:#C5CBCF;" d="M114.765,141.316v-107.6H95.981c-2.407,0-4.358,1.984-4.358,4.423v116.62
			c0,4.976-1.691,9.821-4.813,13.659l-8.065,9.919c10.995,0.833,20.267,2.215,28.524,3.896
			C112.18,169.222,114.765,155.371,114.765,141.316z"/>
		<path style="fill:#EF685E;" d="M20.991,260.778h202.248c2.504,0,3.61-1.756,3.935-2.537c0.029-0.062,0.062-0.14,0.091-0.218
			l-120.481-23.308c-13.038-2.52-19.269-17.539-11.841-28.55c1.779-2.637,3.418-5.353,4.966-8.111
			c-9.587-1.74-20.638-2.995-34.394-3.428l-47.838,58.896c-1.594,1.951-0.943,3.968-0.618,4.716
			C17.414,259.022,18.519,260.778,20.991,260.778z"/>
		<path style="fill:#C5CBCF;" d="M209.158,178.435c5.581,0.491,10.332,1.548,14.586,2.907V91.539h-14.586V178.435z"/>
		<g>
			<path style="fill:#92C1CA;" d="M244.196,255.451c0.137,3.372-0.475,6.794-1.964,10.01c-0.325,0.715-0.748,1.398-1.138,2.081
				c8.088-0.185,15.399-3.555,20.843-8.904C254.934,259.331,249.058,257.952,244.196,255.451z"/>
			<path style="fill:#92C1CA;" d="M223.74,199.427c-4.124-1.85-8.751-3.252-14.586-3.883v9.951l14.586,17.942V199.427z"/>
		</g>
	</g>
</g>
<g>
</g>
<g>
</g>
<g>
</g>
<g>
</g>
<g>
</g>
<g>
</g>
<g>
</g>
<g>
</g>
<g>
</g>
<g>
</g>
<g>
</g>
<g>
</g>
<g>
</g>
<g>
</g>
<g>
</g>
</svg>
