<?xml version="1.0" encoding="iso-8859-1"?>
<!-- Generator: Adobe Illustrator 19.0.0, SVG Export Plug-In . SVG Version: 6.00 Build 0)  -->
<svg version="1.1" id="Layer_1" xmlns="http://www.w3.org/2000/svg" xmlns:xlink="http://www.w3.org/1999/xlink" x="0px" y="0px"
	 viewBox="0 0 334.739 334.739" style="enable-background:new 0 0 334.739 334.739;" xml:space="preserve">
<g>
	<g>
		<g>
			<g id="XMLID_26_">
				<g>
					<path style="fill:#2D213F;" d="M292.917,41.659v284.787c0,4.585-3.707,8.293-8.228,8.293H50.082
						c-4.553,0-8.26-3.707-8.26-8.293V41.659c0-4.585,3.707-8.325,8.26-8.325h71.026C126.507,14.212,145.011,0,166.8,0
						c21.919,0,40.489,14.342,45.79,33.627v-0.293h72.099C289.21,33.334,292.917,37.074,292.917,41.659z M276.429,318.121V49.952
						h-48.066v14.895h25.139c4.52,0,8.228,3.74,8.228,8.325V297.08c0,4.618-3.707,8.325-8.228,8.325H81.27
						c-4.553,0-8.26-3.707-8.26-8.325V73.172c0-4.585,3.707-8.325,8.26-8.325h22.96V49.952H58.31V318.12h218.119V318.121z
						 M245.241,288.787V81.498h-16.878v11.025c0,4.585-3.707,8.325-8.228,8.325H112.49c-4.553,0-8.26-3.74-8.26-8.325V81.498H89.498
						v207.289H245.241z M211.875,84.197V52.619h-5.984c-4.52,0-8.163-3.642-8.228-8.195c-0.228-15.317-14.049-27.805-30.862-27.805
						c-16.781,0-30.635,12.488-30.83,27.805c-0.065,4.553-3.74,8.195-8.26,8.195h-6.992v31.578H211.875z"/>
					<path style="fill:#454D5B;" d="M276.429,49.952V318.12H58.31V49.952h45.92v14.895H81.27c-4.553,0-8.26,3.74-8.26,8.325V297.08
						c0,4.618,3.707,8.325,8.26,8.325h172.231c4.52,0,8.228-3.707,8.228-8.325V73.172c0-4.585-3.707-8.325-8.228-8.325h-25.139
						V49.952C228.363,49.952,276.429,49.952,276.429,49.952z"/>
					<path style="fill:#C5CBCF;" d="M245.241,81.498v207.289H89.498V81.498h14.732v11.025c0,4.585,3.707,8.325,8.26,8.325h107.645
						c4.52,0,8.228-3.74,8.228-8.325V81.498H245.241z M221.696,136.491c0-4.618-3.675-8.325-8.228-8.325h-96.75
						c-4.553,0-8.228,3.707-8.228,8.325c0,4.585,3.675,8.293,8.228,8.293h96.75C218.021,144.784,221.696,141.076,221.696,136.491z
						 M221.696,175.971c0-4.585-3.675-8.325-8.228-8.325h-96.75c-4.553,0-8.228,3.74-8.228,8.325s3.675,8.293,8.228,8.293h96.75
						C218.021,184.264,221.696,180.557,221.696,175.971z M221.696,215.452c0-4.585-3.675-8.293-8.228-8.293h-96.75
						c-4.553,0-8.228,3.707-8.228,8.293s3.675,8.325,8.228,8.325h96.75C218.021,223.777,221.696,220.037,221.696,215.452z
						 M221.696,254.932c0-4.585-3.675-8.293-8.228-8.293h-96.75c-4.553,0-8.228,3.707-8.228,8.293c0,4.618,3.675,8.325,8.228,8.325
						h96.75C218.021,263.258,221.696,259.55,221.696,254.932z"/>
					<path style="fill:#2D213F;" d="M213.468,128.165c4.553,0,8.228,3.707,8.228,8.325c0,4.585-3.675,8.293-8.228,8.293h-96.75
						c-4.553,0-8.228-3.707-8.228-8.293c0-4.618,3.675-8.325,8.228-8.325H213.468z"/>
					<path style="fill:#2D213F;" d="M213.468,167.646c4.553,0,8.228,3.74,8.228,8.325s-3.675,8.293-8.228,8.293h-96.75
						c-4.553,0-8.228-3.707-8.228-8.293s3.675-8.325,8.228-8.325H213.468z"/>
					<path style="fill:#2D213F;" d="M213.468,207.159c4.553,0,8.228,3.707,8.228,8.293s-3.675,8.325-8.228,8.325h-96.75
						c-4.553,0-8.228-3.74-8.228-8.325s3.675-8.293,8.228-8.293H213.468z"/>
					<path style="fill:#2D213F;" d="M213.468,246.639c4.553,0,8.228,3.707,8.228,8.293c0,4.618-3.675,8.325-8.228,8.325h-96.75
						c-4.553,0-8.228-3.707-8.228-8.325c0-4.585,3.675-8.293,8.228-8.293L213.468,246.639L213.468,246.639z"/>
					<path style="fill:#454D5B;" d="M211.875,52.619v31.578h-91.156V52.619h6.992c4.52,0,8.195-3.642,8.26-8.195
						c0.195-15.317,14.049-27.805,30.83-27.805c16.813,0,30.635,12.488,30.862,27.805c0.065,4.553,3.707,8.195,8.228,8.195H211.875z
						 M177.792,42.245c0-6.504-5.236-11.773-11.675-11.773s-11.675,5.268-11.675,11.773s5.236,11.773,11.675,11.773
						C172.557,54.017,177.792,48.749,177.792,42.245z"/>
					<ellipse style="fill:#2D213F;" cx="166.117" cy="42.245" rx="11.675" ry="11.773"/>
				</g>
			</g>
		</g>
		<path style="fill:#EAEEEF;" d="M228.363,92.522c0,4.585-3.707,8.325-8.228,8.325h-92.096c-5.223,7.873-8.335,17.239-8.651,27.318
			h94.08c4.553,0,8.228,3.707,8.228,8.325c0,4.585-3.675,8.293-8.228,8.293h-94.165v22.862h94.165c4.553,0,8.228,3.74,8.228,8.325
			s-3.675,8.293-8.228,8.293h-94.165v22.895h94.165c4.553,0,8.228,3.707,8.228,8.293s-3.675,8.325-8.228,8.325h-93.459
			c1.33,8.462,4.654,16.241,9.503,22.862h83.956c4.553,0,8.228,3.707,8.228,8.293c0,4.618-3.675,8.325-8.228,8.325h-63.816
			c6.816,3.213,14.404,5.06,22.44,5.06h21.438c24.209,0,44.7-15.848,51.712-37.731V81.498h-16.878
			C228.363,81.498,228.363,92.522,228.363,92.522z"/>
	</g>
</g>
<g>
</g>
<g>
</g>
<g>
</g>
<g>
</g>
<g>
</g>
<g>
</g>
<g>
</g>
<g>
</g>
<g>
</g>
<g>
</g>
<g>
</g>
<g>
</g>
<g>
</g>
<g>
</g>
<g>
</g>
</svg>
