<?xml version="1.0" encoding="iso-8859-1"?>
<!-- Generator: Adobe Illustrator 19.0.0, SVG Export Plug-In . SVG Version: 6.00 Build 0)  -->
<svg version="1.1" id="Layer_1" xmlns="http://www.w3.org/2000/svg" xmlns:xlink="http://www.w3.org/1999/xlink" x="0px" y="0px"
	 viewBox="0 0 284.559 284.559" style="enable-background:new 0 0 284.559 284.559;" xml:space="preserve">
<g>
	<g>
		<g>
			<g id="XMLID_22_">
				<g>
					<path style="fill:#EAEEEF;" d="M267.876,150.983v42.798c0,14.602-11.708,26.505-26.114,26.505s-26.147-11.903-26.147-26.505
						v-42.798H267.876z"/>
					<path style="fill:#2D213F;" d="M284.559,93.486v100.295c0,23.935-19.22,43.448-42.798,43.448
						c-23.61,0-42.798-19.513-42.798-43.448V93.486c0-23.968,19.187-43.448,42.798-43.448
						C265.339,50.038,284.559,69.518,284.559,93.486z M267.876,193.781v-42.798h-52.261v42.798c0,14.602,11.74,26.505,26.147,26.505
						C256.168,220.285,267.876,208.383,267.876,193.781z M267.876,134.072V93.486c0-14.634-11.708-26.537-26.114-26.537
						s-26.147,11.903-26.147,26.537v40.586L267.876,134.072L267.876,134.072z"/>
					<path style="fill:#AAE1E9;" d="M241.761,66.949c14.407,0,26.114,11.903,26.114,26.537v40.586h-52.261V93.486
						C215.614,78.851,227.355,66.949,241.761,66.949z"/>
					<path style="fill:#F2CE75;" d="M150.117,86.169c14.765,14.992,22.895,34.928,22.895,56.131c0,21.171-8.13,41.107-22.895,56.099
						c-12.391,12.553-27.903,19.935-44.033,22.309V63.859C122.214,66.233,137.727,73.615,150.117,86.169z"/>
					<path style="fill:#F2CE75;" d="M89.4,63.209v158.15c-18.147-1.268-35.968-8.878-49.822-22.96
						c-14.765-14.992-22.895-34.928-22.895-56.099c0-21.204,8.13-41.139,22.895-56.131C53.432,72.087,71.254,64.51,89.4,63.209z"/>
					<path style="fill:#2D213F;" d="M89.4,221.358V63.209c-18.147,1.301-35.968,8.878-49.822,22.96
						c-14.765,14.992-22.895,34.928-22.895,56.131c0,21.171,8.13,41.107,22.895,56.099C53.432,212.48,71.254,220.09,89.4,221.358z
						 M161.89,74.201c17.919,18.179,27.805,42.375,27.805,68.099c0,25.692-9.886,49.887-27.805,68.067
						c-18.472,18.765-42.765,28.163-67.058,28.163c-24.261,0-48.554-9.399-67.058-28.163C9.854,192.187,0,167.991,0,142.3
						c0-25.724,9.854-49.92,27.773-68.099C64.749,36.639,124.913,36.639,161.89,74.201z M173.012,142.3
						c0-21.204-8.13-41.139-22.895-56.131c-12.391-12.553-27.903-19.935-44.033-22.309v156.849
						c16.13-2.374,31.643-9.756,44.033-22.309C164.882,183.406,173.012,163.471,173.012,142.3z"/>
				</g>
			</g>
		</g>
		<path style="fill:#92C1CA;" d="M229.332,112.686c0-9.041,4.085-17.597,11.112-23.282l19.015-15.379
			c-4.657-4.377-10.865-7.077-17.698-7.077c-14.407,0-26.147,11.903-26.147,26.537v40.586h13.717v-21.385H229.332z"/>
		<path style="fill:#C5CBCF;" d="M241.761,220.285c5.285,0,10.202-1.613,14.316-4.364l-12.504-10.94
			c-9.051-7.919-14.241-19.36-14.241-31.386v-22.612h-13.717v42.798C215.614,208.383,227.355,220.285,241.761,220.285z"/>
		<path style="fill:#FEDE94;" d="M173.012,142.3c0-8.68-1.385-17.142-4.007-25.145c-12.391-17.08-32.453-28.232-55.169-28.232
			c-2.624,0-5.203,0.182-7.753,0.472v131.313c16.13-2.374,31.643-9.756,44.033-22.309
			C164.882,183.406,173.012,163.471,173.012,142.3z"/>
		<path style="fill:#FEDE94;" d="M89.4,93.512c-25.565,9.834-43.744,34.56-43.744,63.588c0,29.032,18.176,53.757,43.744,63.588
			V93.512z"/>
	</g>
</g>
<g>
</g>
<g>
</g>
<g>
</g>
<g>
</g>
<g>
</g>
<g>
</g>
<g>
</g>
<g>
</g>
<g>
</g>
<g>
</g>
<g>
</g>
<g>
</g>
<g>
</g>
<g>
</g>
<g>
</g>
</svg>
