<?xml version="1.0" encoding="iso-8859-1"?>
<!-- Generator: Adobe Illustrator 19.0.0, SVG Export Plug-In . SVG Version: 6.00 Build 0)  -->
<svg version="1.1" id="Layer_1" xmlns="http://www.w3.org/2000/svg" xmlns:xlink="http://www.w3.org/1999/xlink" x="0px" y="0px"
	 viewBox="0 0 292.917 292.917" style="enable-background:new 0 0 292.917 292.917;" xml:space="preserve">
<g>
	<g>
		<g>
			<g id="XMLID_25_">
				<g>
					<path style="fill:#2D213F;" d="M246.883,137.987v146.54c0,4.651-3.805,8.39-8.455,8.39H54.456c-4.651,0-8.423-3.74-8.423-8.39
						v-146.54c0-22.667,13.399-43.741,34.602-55.091v-12.39H71.79c-4.683,0-8.455-3.772-8.455-8.39V8.39
						c0-4.618,3.772-8.39,8.455-8.39h147.158c4.683,0,8.455,3.772,8.455,8.39v53.725c0,4.618-3.772,8.39-8.455,8.39h-6.699v12.391
						C233.452,94.246,246.883,115.32,246.883,137.987z M229.973,276.136v-27.74H62.912v27.74H229.973z M229.973,231.615v-93.628
						c0-2.016-0.163-4.033-0.423-5.984H63.368c-0.293,1.951-0.455,3.968-0.455,5.984v93.628L229.973,231.615L229.973,231.615z
						 M69.514,115.222h153.857c-5.106-8.228-13.008-15.025-22.96-19.415c-3.09-1.333-5.073-4.325-5.073-7.675V70.506H97.547v17.626
						c0,3.35-1.984,6.342-5.041,7.675C82.522,100.165,74.652,106.994,69.514,115.222z M210.493,53.725V16.781h-17.074v36.944
						H210.493z M176.508,53.725V16.781h-19.513v36.944H176.508z M140.085,53.725V16.781h-21.659v36.944H140.085z M101.547,53.725
						V16.781H80.246v36.944H101.547z"/>
					<rect x="62.912" y="248.396" style="fill:#EAEEEF;" width="167.061" height="27.74"/>
					<path style="fill:#F47C6D;" d="M229.973,137.987v93.628H62.912v-93.628c0-2.016,0.163-4.033,0.455-5.984h166.183
						C229.811,133.954,229.973,135.97,229.973,137.987z M180.997,192.557v-28.326h-21.366v-21.236H131.11v21.236H109.71v28.326
						h21.399v21.236h28.521v-21.236H180.997z"/>
					<path style="fill:#EAEEEF;" d="M223.372,115.222H69.514c5.138-8.228,13.008-15.057,22.992-19.415
						c3.057-1.333,5.041-4.325,5.041-7.675V70.506h97.791v17.626c0,3.35,1.984,6.342,5.073,7.675
						C210.363,100.197,218.266,106.994,223.372,115.222z"/>
					<path style="fill:#EF685E;" d="M84.529,210.525v-37.064c0-14.618,3.704-28.849,10.569-41.458H63.368
						c-0.293,1.951-0.455,3.968-0.455,5.984v93.628h26.401C86.239,225.202,84.529,218.041,84.529,210.525z"/>
					<rect x="193.42" y="16.781" style="fill:#F47C6D;" width="17.074" height="36.944"/>
					<polygon style="fill:#2D213F;" points="180.997,164.231 180.997,192.557 159.63,192.557 159.63,213.793 131.109,213.793 
						131.109,192.557 109.71,192.557 109.71,164.231 131.109,164.231 131.109,142.995 159.63,142.995 159.63,164.231 					"/>
					<rect x="156.995" y="16.781" style="fill:#F47C6D;" width="19.513" height="36.944"/>
					<rect x="118.425" y="16.781" style="fill:#F47C6D;" width="21.659" height="36.944"/>
					<rect x="80.246" y="16.781" style="fill:#F47C6D;" width="21.301" height="36.944"/>
				</g>
			</g>
		</g>
		<path style="fill:#C5CBCF;" d="M229.973,274.754c-29.695-4.787-72.366-11.23-103.82-15.919
			c-8.953-1.333-17.028-5.047-23.636-10.436H62.912v27.74h167.061v-1.385H229.973z"/>
		<path style="fill:#C5CBCF;" d="M188.355,70.506h-68.902H99.849h-2.302v17.626c0,3.369-2.042,6.361-5.125,7.711
			c-9.945,4.358-17.783,11.174-22.908,19.379h37.487c0.946-1.044,1.922-2.072,2.924-3.073l0.53-0.53
			c5.763-5.763,9.002-13.581,9.002-21.731v-5.057c0-3.903,2.94-7.177,6.82-7.6L188.355,70.506z"/>
	</g>
</g>
<g>
</g>
<g>
</g>
<g>
</g>
<g>
</g>
<g>
</g>
<g>
</g>
<g>
</g>
<g>
</g>
<g>
</g>
<g>
</g>
<g>
</g>
<g>
</g>
<g>
</g>
<g>
</g>
<g>
</g>
</svg>
