<?xml version="1.0" encoding="iso-8859-1"?>
<!-- Generator: Adobe Illustrator 19.0.0, SVG Export Plug-In . SVG Version: 6.00 Build 0)  -->
<svg version="1.1" id="Layer_1" xmlns="http://www.w3.org/2000/svg" xmlns:xlink="http://www.w3.org/1999/xlink" x="0px" y="0px"
	 viewBox="0 0 318.024 318.024" style="enable-background:new 0 0 318.024 318.024;" xml:space="preserve">
<g>
	<g>
		<g id="XMLID_31_">
			<g>
				<path style="fill:#2D213F;" d="M273.551,219.159c22.765,3.447,40.294,23.057,40.294,46.7c0,26.082-21.301,47.318-47.481,47.318
					c-26.147,0-47.448-21.236-47.448-47.318c0-22.732,16.195-41.757,37.692-46.277v-7.447h-79.709
					c1.333,6.049,2.114,12.325,2.114,18.765c0,48.034-39.22,87.124-87.417,87.124S4.179,278.934,4.179,230.9
					c0-41.822,29.724-76.815,69.205-85.205V37.985l-36.196,0.813c-2.309,0.033-4.455-0.813-6.114-2.407
					c-1.626-1.594-2.537-3.772-2.537-6.016V8.455C28.537,3.772,32.342,0,37.025,0h44.814c4.683,0,8.488,3.772,8.488,8.455V45.66
					h157.825c4.683,0,8.488,3.772,8.488,8.455v25.236c0,4.683-3.805,8.455-8.488,8.455h-8.716v83.156h25.627
					c4.683,0,8.488,3.772,8.488,8.455L273.551,219.159L273.551,219.159z M296.901,265.859c0-16.748-13.691-30.407-30.537-30.407
					c-16.813,0-30.505,13.659-30.505,30.407c0,16.781,13.691,30.407,30.505,30.407C283.209,296.267,296.901,282.64,296.901,265.859z
					 M256.607,195.256v-7.415H167.5c1.366,2.407,2.634,4.878,3.772,7.415H256.607z M239.696,70.928v-8.39H90.327v8.39H239.696z
					 M222.493,170.963V87.807H90.327v56.034c0.423,0,0.846-0.065,1.268-0.065c24.911,0,47.351,10.472,63.286,27.188h67.612V170.963z
					 M162.069,230.899c0-38.733-31.61-70.245-70.473-70.245s-70.473,31.513-70.473,70.245s31.61,70.245,70.473,70.245
					S162.069,269.632,162.069,230.899z M73.384,21.106v-4.228H45.481v4.846L73.384,21.106z"/>
				<path style="fill:#454D5B;" d="M266.364,235.452c16.846,0,30.537,13.659,30.537,30.407c0,16.781-13.691,30.407-30.537,30.407
					c-16.813,0-30.505-13.626-30.505-30.407C235.859,249.111,249.55,235.452,266.364,235.452z M283.177,265.859
					c0-9.236-7.512-16.716-16.813-16.716c-9.268,0-16.781,7.48-16.781,16.716s7.512,16.748,16.781,16.748
					C275.665,282.608,283.177,275.095,283.177,265.859z"/>
				<path style="fill:#2D213F;" d="M266.364,249.144c9.301,0,16.813,7.48,16.813,16.716s-7.512,16.748-16.813,16.748
					c-9.268,0-16.781-7.512-16.781-16.748S257.095,249.144,266.364,249.144z"/>
				<path style="fill:#454D5B;" d="M256.607,187.841v7.415h-85.335c-1.138-2.537-2.407-5.008-3.772-7.415H256.607z"/>
				<rect x="90.327" y="62.538" style="fill:#454D5B;" width="149.369" height="8.39"/>
				<path style="fill:#454D5B;" d="M91.595,160.654c38.863,0,70.473,31.513,70.473,70.245s-31.61,70.245-70.473,70.245
					s-70.473-31.513-70.473-70.245S52.733,160.654,91.595,160.654z M154.946,230.899c0-34.83-28.423-63.123-63.351-63.123
					s-63.351,28.293-63.351,63.123c0,34.798,28.423,63.123,63.351,63.123S154.946,265.697,154.946,230.899z"/>
				<path style="fill:#2D213F;" d="M91.595,167.776c34.928,0,63.351,28.293,63.351,63.123c0,34.798-28.423,63.123-63.351,63.123
					s-63.351-28.326-63.351-63.123C28.245,196.069,56.668,167.776,91.595,167.776z M137.97,230.899
					c0-25.496-20.813-46.245-46.375-46.245c-25.594,0-46.408,20.748-46.408,46.245S66,277.144,91.595,277.144
					C117.157,277.144,137.97,256.396,137.97,230.899z"/>
				<path style="fill:#2D213F;" d="M91.595,209.435c11.87,0,21.529,9.626,21.529,21.464s-9.659,21.464-21.529,21.464
					c-11.903,0-21.529-9.626-21.529-21.464C70.067,219.062,79.693,209.435,91.595,209.435z"/>
				<polygon style="fill:#454D5B;" points="73.384,16.878 73.384,21.106 45.481,21.724 45.481,16.878 				"/>
			</g>
		</g>
	</g>
</g>
<g>
</g>
<g>
</g>
<g>
</g>
<g>
</g>
<g>
</g>
<g>
</g>
<g>
</g>
<g>
</g>
<g>
</g>
<g>
</g>
<g>
</g>
<g>
</g>
<g>
</g>
<g>
</g>
<g>
</g>
</svg>
