<?xml version="1.0" encoding="iso-8859-1"?>
<!-- Generator: Adobe Illustrator 19.0.0, SVG Export Plug-In . SVG Version: 6.00 Build 0)  -->
<svg version="1.1" id="Layer_1" xmlns="http://www.w3.org/2000/svg" xmlns:xlink="http://www.w3.org/1999/xlink" x="0px" y="0px"
	 viewBox="0 0 326.381 326.381" style="enable-background:new 0 0 326.381 326.381;" xml:space="preserve">
<g>
	<g>
		<g>
			<g id="XMLID_3_">
				<g>
					<path style="fill:#2D213F;" d="M309.649,130.897v24.066c0,4.651-3.74,8.39-8.325,8.39h-16.163v122.474
						c0,22.374-18.017,40.554-40.163,40.554c-21.561,0-39.188-17.269-40.066-38.83h-0.098v-1.594c0-0.033,0-0.065,0-0.13v-81.205
						c0-13.106-10.569-23.773-23.545-23.773c-12.911,0-23.415,10.537-23.545,23.545v81.368c0,22.374-18.017,40.554-40.163,40.554
						c-21.496,0-39.025-17.139-40.066-38.57h-0.098v-1.919c0-0.033-0.033-0.033-0.033-0.065h0.033l-0.033-100.978
						c-34.115-4.065-60.652-33.399-60.652-68.912V42.798c0-4.618,3.707-8.39,8.293-8.39H59.79V25.4C59.79,11.382,71.075,0,84.929,0
						C98.815,0,110.1,11.382,110.1,25.399v9.008h35.806c4.585,0,8.325,3.772,8.325,8.39v73.075c0,35.35-26.342,64.554-60.229,68.815
						l0.033,101.14c0.033,13.073,10.569,23.708,23.545,23.708s23.545-10.667,23.545-23.773v-81.14c0-0.065,0-0.163,0-0.228v-2.732
						h0.13c1.528-20.976,18.862-37.594,40.033-37.594c22.147,0,40.163,18.212,40.163,40.554v81.335
						c0.065,13.041,10.602,23.675,23.545,23.675c13.008,0,23.545-10.699,23.545-23.805V163.353h-15.61
						c-4.585,0-8.325-3.74-8.325-8.39v-24.066c0-15.187,10.309-27.968,24.196-31.675V83.547c0-4.618,3.74-8.39,8.325-8.39
						c4.585,0,8.293,3.772,8.293,8.39v15.675C299.34,102.929,309.649,115.71,309.649,130.897z M293.031,146.572v-15.675
						c0-8.846-7.155-16.033-15.903-16.033c-8.781,0-15.903,7.187-15.903,16.033v15.675H293.031z M137.613,115.872V93.693
						c-8.293-1.366-13.464-5.041-17.756-8.163c-4.423-3.22-7.642-5.561-14.797-5.561s-10.342,2.342-14.797,5.561
						c-5.366,3.903-12,8.716-24.521,8.716c-12.488,0-19.155-4.813-24.488-8.716c-2.699-1.951-4.943-3.577-7.935-4.553v34.895
						c0,29.041,23.415,52.652,52.164,52.652S137.613,144.914,137.613,115.872z M137.613,76.522V51.188H33.318v12.586
						c8.228,1.398,13.399,5.041,17.659,8.13c4.423,3.252,7.642,5.561,14.765,5.561c7.155,0,10.374-2.309,14.83-5.561
						c5.333-3.87,12-8.716,24.488-8.716c12.521,0,19.155,4.846,24.521,8.716C132.312,73.92,134.588,75.546,137.613,76.522z
						 M93.482,34.407v-9.008c0-4.748-3.837-8.618-8.553-8.618c-4.683,0-8.521,3.87-8.521,8.618v9.008H93.482z"/>
					<path style="fill:#454D5B;" d="M293.031,130.897v15.675h-31.806v-15.675c0-8.846,7.122-16.033,15.903-16.033
						C285.876,114.864,293.031,122.051,293.031,130.897z"/>
					<path style="fill:#F47C6D;" d="M137.613,93.693v22.179c0,29.041-23.383,52.652-52.131,52.652s-52.164-23.61-52.164-52.652
						V80.977c2.992,0.976,5.236,2.602,7.935,4.553c5.333,3.903,12,8.716,24.488,8.716c12.521,0,19.155-4.813,24.521-8.716
						c4.455-3.22,7.642-5.561,14.797-5.561s10.374,2.342,14.797,5.561C124.149,88.652,129.32,92.327,137.613,93.693z
						 M102.588,111.45c0-4.618-3.74-8.39-8.325-8.39H79.205c-4.585,0-8.293,3.772-8.293,8.39c0,4.651,3.707,8.39,8.293,8.39h15.057
						C98.848,119.84,102.588,116.1,102.588,111.45z M102.588,141.727c0-4.651-3.74-8.39-8.325-8.39H79.205
						c-4.585,0-8.293,3.74-8.293,8.39c0,4.618,3.707,8.39,8.293,8.39h15.057C98.848,150.117,102.588,146.345,102.588,141.727z"/>
					<path style="fill:#EAEEEF;" d="M137.613,51.188v25.334c-3.024-0.976-5.301-2.602-8.033-4.618
						c-5.366-3.87-12-8.716-24.521-8.716c-12.488,0-19.155,4.846-24.488,8.716c-4.455,3.252-7.675,5.561-14.83,5.561
						c-7.122,0-10.342-2.309-14.765-5.561c-4.26-3.09-9.431-6.732-17.659-8.13V51.188C33.318,51.188,137.613,51.188,137.613,51.188z
						"/>
					<path style="fill:#2D213F;" d="M94.262,103.059c4.585,0,8.325,3.772,8.325,8.39c0,4.651-3.74,8.39-8.325,8.39H79.205
						c-4.585,0-8.293-3.74-8.293-8.39c0-4.618,3.707-8.39,8.293-8.39H94.262z"/>
					<path style="fill:#2D213F;" d="M94.262,133.336c4.585,0,8.325,3.74,8.325,8.39c0,4.618-3.74,8.39-8.325,8.39H79.205
						c-4.585,0-8.293-3.772-8.293-8.39c0-4.651,3.707-8.39,8.293-8.39H94.262z"/>
				</g>
			</g>
		</g>
		<path style="fill:#C5CBCF;" d="M33.318,63.774c8.228,1.398,13.399,5.041,17.659,8.13c0.676,0.498,1.324,0.963,1.961,1.411
			c6.133-7.434,14.956-12.615,25.077-13.997l59.598-8.13H33.318V63.774z"/>
		<path style="fill:#EF685E;" d="M44.05,96.103c0.137-2.67,0.569-5.262,1.216-7.769c-1.444-0.937-2.771-1.893-4.016-2.803
			c-2.699-1.951-4.943-3.577-7.935-4.553v34.895c0,15.708,6.885,29.786,17.724,39.438C44.58,131.021,43.289,111.105,44.05,96.103z"
			/>
	</g>
</g>
<g>
</g>
<g>
</g>
<g>
</g>
<g>
</g>
<g>
</g>
<g>
</g>
<g>
</g>
<g>
</g>
<g>
</g>
<g>
</g>
<g>
</g>
<g>
</g>
<g>
</g>
<g>
</g>
<g>
</g>
</svg>
