<?xml version="1.0" encoding="iso-8859-1"?>
<!-- Generator: Adobe Illustrator 19.0.0, SVG Export Plug-In . SVG Version: 6.00 Build 0)  -->
<svg version="1.1" id="Layer_1" xmlns="http://www.w3.org/2000/svg" xmlns:xlink="http://www.w3.org/1999/xlink" x="0px" y="0px"
	 viewBox="0 0 292.917 292.917" style="enable-background:new 0 0 292.917 292.917;" xml:space="preserve">
<g>
	<g>
		<g>
			<g id="XMLID_19_">
				<g>
					<g>
						<path style="fill:#2D213F;" d="M146.475,0c80.75,0,146.442,65.725,146.442,146.475s-65.692,146.442-146.442,146.442
							S0,227.224,0,146.475S65.725,0,146.475,0z M276.039,146.475c0-71.449-58.115-129.564-129.564-129.564
							S16.911,75.026,16.911,146.475s58.115,129.564,129.564,129.564S276.039,217.923,276.039,146.475z"/>
					</g>
					<g>
						<path style="fill:#EAEEEF;" d="M146.475,16.911c71.449,0,129.564,58.115,129.564,129.564s-58.115,129.564-129.564,129.564
							S16.911,217.923,16.911,146.475S75.026,16.911,146.475,16.911z M236.688,176.101v-58.148c0-4.683-3.805-8.455-8.455-8.455
							h-43.741v-43.74c0-4.651-3.772-8.423-8.423-8.423h-58.18c-4.651,0-8.423,3.772-8.423,8.423v43.741H65.725
							c-4.651,0-8.455,3.772-8.455,8.455v58.148c0,4.65,3.805,8.455,8.455,8.455h43.741v43.708c0,4.683,3.772,8.455,8.423,8.455
							h58.18c4.651,0,8.423-3.772,8.423-8.455v-43.708h43.741C232.883,184.557,236.688,180.752,236.688,176.101z"/>
					</g>
					<g>
						<path style="fill:#C5CBCF;" d="M146.475,16.911c71.449,0,129.564,58.115,129.564,129.564s-58.115,129.564-129.564,129.564
							S16.911,217.923,16.911,146.475S75.026,16.911,146.475,16.911z M236.688,176.101v-58.148c0-4.683-3.805-8.455-8.455-8.455
							h-43.741v-43.74c0-4.651-3.772-8.423-8.423-8.423h-58.18c-4.651,0-8.423,3.772-8.423,8.423v43.741H65.725
							c-4.651,0-8.455,3.772-8.455,8.455v58.148c0,4.65,3.805,8.455,8.455,8.455h43.741v43.708c0,4.683,3.772,8.455,8.423,8.455
							h58.18c4.651,0,8.423-3.772,8.423-8.455v-43.708h43.741C232.883,184.557,236.688,180.752,236.688,176.101z"/>
					</g>
					<g>
						<path style="fill:#EAEEEF;" d="M129.668,36.772c-34.97,0-66.72,13.945-90.054,36.537
							c-14.306,20.833-22.703,46.034-22.703,73.166c0,71.449,58.115,129.564,129.564,129.564c34.97,0,66.72-13.945,90.054-36.537
							c14.309-20.836,22.706-46.034,22.706-73.166C259.232,94.887,201.117,36.772,129.668,36.772z M236.688,117.954v58.148
							c0,4.651-3.805,8.455-8.455,8.455h-43.741v43.708c0,4.683-3.772,8.455-8.423,8.455h-58.18c-4.651,0-8.423-3.772-8.423-8.455
							v-43.708H65.725c-4.651,0-8.455-3.805-8.455-8.455v-58.148c0-4.683,3.805-8.455,8.455-8.455h43.741V65.758
							c0-4.651,3.772-8.423,8.423-8.423h58.18c4.651,0,8.423,3.772,8.423,8.423v43.741h43.741
							C232.883,109.498,236.688,113.271,236.688,117.954z"/>
					</g>
					<g>
						<path style="fill:#C5CBCF;" d="M242.906,125.16v58.148c0,4.651-3.805,8.455-8.455,8.455H190.71v43.708
							c0,4.683-3.772,8.455-8.423,8.455h-58.18c-4.651,0-8.423-3.772-8.423-8.455v-43.708H71.943c-4.651,0-8.455-3.805-8.455-8.455
							V125.16c0-4.683,3.805-8.455,8.455-8.455h43.741V72.964c0-4.651,3.772-8.423,8.423-8.423h58.18
							c4.651,0,8.423,3.772,8.423,8.423v43.741h43.741C239.101,116.705,242.906,120.477,242.906,125.16z M225.995,174.853v-41.269
							h-43.708c-4.683,0-8.455-3.772-8.455-8.423V81.42h-41.269v43.741c0,4.651-3.772,8.423-8.455,8.423H80.399v41.269h43.708
							c4.683,0,8.455,3.772,8.455,8.455v43.741h41.269v-43.741c0-4.683,3.772-8.455,8.455-8.455
							C182.287,174.853,225.995,174.853,225.995,174.853z"/>
					</g>
					<g>
						<path style="fill:#505967;" d="M219.777,126.377v41.269h-43.708c-4.683,0-8.455,3.772-8.455,8.455v43.741h-41.269v-43.741
							c0-4.683-3.772-8.455-8.455-8.455H74.18v-41.269h43.708c4.683,0,8.455-3.772,8.455-8.423V74.213h41.269v43.741
							c0,4.651,3.772,8.423,8.455,8.423H219.777z"/>
					</g>
				</g>
			</g>
		</g>
		<g>
			<path style="fill:#2D213F;" d="M236.688,117.954v58.148c0,4.651-3.805,8.455-8.455,8.455h-43.741v43.708
				c0,4.683-3.772,8.455-8.423,8.455h-58.18c-4.651,0-8.423-3.772-8.423-8.455v-43.708H65.725c-4.651,0-8.455-3.805-8.455-8.455
				v-58.148c0-4.683,3.805-8.455,8.455-8.455h43.741V65.758c0-4.651,3.772-8.423,8.423-8.423h58.18c4.651,0,8.423,3.772,8.423,8.423
				v43.741h43.741C232.883,109.498,236.688,113.271,236.688,117.954z M219.777,167.646v-41.269h-43.708
				c-4.683,0-8.455-3.772-8.455-8.423V74.213h-41.269v43.741c0,4.651-3.772,8.423-8.455,8.423H74.18v41.269h43.708
				c4.683,0,8.455,3.772,8.455,8.455v43.741h41.269v-43.741c0-4.683,3.772-8.455,8.455-8.455
				C176.069,167.646,219.777,167.646,219.777,167.646z"/>
		</g>
	</g>
</g>
<g>
</g>
<g>
</g>
<g>
</g>
<g>
</g>
<g>
</g>
<g>
</g>
<g>
</g>
<g>
</g>
<g>
</g>
<g>
</g>
<g>
</g>
<g>
</g>
<g>
</g>
<g>
</g>
<g>
</g>
</svg>
