<?xml version="1.0" encoding="iso-8859-1"?>
<!-- Generator: Adobe Illustrator 19.0.0, SVG Export Plug-In . SVG Version: 6.00 Build 0)  -->
<svg version="1.1" id="Layer_1" xmlns="http://www.w3.org/2000/svg" xmlns:xlink="http://www.w3.org/1999/xlink" x="0px" y="0px"
	 viewBox="0 0 309.665 309.665" style="enable-background:new 0 0 309.665 309.665;" xml:space="preserve">
<g>
	<g>
		<g id="XMLID_20_">
			<g>
				<path style="fill:#2D213F;" d="M309.665,94.734c0,15.903-10.797,29.301-25.496,33.562v136.653
					c0,22.342-18.374,40.521-40.976,40.521c-21.984,0-39.968-17.269-40.879-38.83h-0.065v-1.594c0-0.033-0.033-0.065-0.033-0.098
					h0.033v-81.173c0-13.106-10.797-23.773-24.033-23.773c-13.171,0-23.87,10.537-24.001,23.513v81.335
					c0,22.374-18.407,40.554-40.976,40.554c-21.919,0-39.838-17.106-40.879-38.537h-0.098v-1.919c0-0.033,0-0.065,0-0.098
					l-0.033-96.035C31.708,164.589,0,130.604,0,89.4V36.196c0-4.618,3.805-8.39,8.488-8.39h20.423v-15.22
					c0-4.618,3.805-8.39,8.488-8.39h21.952c4.683,0,8.455,3.772,8.455,8.39v45.139c0,4.651-3.772,8.39-8.455,8.39H37.399
					c-4.683,0-8.488-3.74-8.488-8.39V44.586H16.943V89.4c0,34.798,28.619,63.091,63.774,63.091s63.774-28.293,63.774-63.091V44.586
					h-13.106v13.138c0,4.651-3.805,8.39-8.488,8.39h-21.952c-4.683,0-8.455-3.74-8.455-8.39V12.586c0-4.618,3.772-8.39,8.455-8.39
					h21.952c4.683,0,8.488,3.772,8.488,8.39v15.22h21.561c4.683,0,8.488,3.772,8.488,8.39V89.4
					c0,41.204-31.708,75.189-72.229,79.416v96.132c0.033,13.073,10.797,23.675,24.033,23.675s24.001-10.667,24.001-23.773v-81.075
					c0-0.098,0-0.163,0-0.26v-2.732h0.163c1.528-20.944,19.22-37.562,40.814-37.562c22.602,0,40.977,18.212,40.977,40.554v81.27
					c0.065,13.073,10.797,23.675,24.001,23.675c13.269,0,24.033-10.667,24.033-23.773v-135.97
					c-16.098-3.252-28.228-17.366-28.228-34.245c0-19.285,15.838-34.96,35.318-34.96C293.795,59.774,309.665,75.449,309.665,94.734z
					 M292.722,94.734c0-10.016-8.26-18.179-18.407-18.179s-18.374,8.163-18.374,18.179c0,10.049,8.228,18.179,18.374,18.179
					C284.461,112.913,292.722,104.783,292.722,94.734z M114.442,49.334V20.976h-5.008v28.358H114.442z M50.863,49.334V20.976h-5.008
					v28.358H50.863z"/>
				<path style="fill:#454D5B;" d="M274.315,76.555c10.147,0,18.407,8.163,18.407,18.179c0,10.049-8.26,18.179-18.407,18.179
					s-18.374-8.13-18.374-18.179C255.941,84.717,264.168,76.555,274.315,76.555z M283.974,94.734c0-5.268-4.325-9.529-9.659-9.529
					c-5.333,0-9.626,4.26-9.626,9.529s4.293,9.561,9.626,9.561S283.974,100.002,283.974,94.734z"/>
				<path style="fill:#2D213F;" d="M274.315,85.205c5.333,0,9.659,4.26,9.659,9.529s-4.325,9.561-9.659,9.561
					c-5.333,0-9.626-4.293-9.626-9.561C264.689,89.465,268.981,85.205,274.315,85.205z"/>
				<rect x="109.433" y="20.976" style="fill:#454D5B;" width="5.008" height="28.358"/>
				<rect x="45.855" y="20.976" style="fill:#454D5B;" width="5.008" height="28.358"/>
			</g>
		</g>
	</g>
</g>
<g>
</g>
<g>
</g>
<g>
</g>
<g>
</g>
<g>
</g>
<g>
</g>
<g>
</g>
<g>
</g>
<g>
</g>
<g>
</g>
<g>
</g>
<g>
</g>
<g>
</g>
<g>
</g>
<g>
</g>
</svg>
