<?xml version="1.0" encoding="iso-8859-1"?>
<!-- Generator: Adobe Illustrator 19.0.0, SVG Export Plug-In . SVG Version: 6.00 Build 0)  -->
<svg version="1.1" id="Layer_1" xmlns="http://www.w3.org/2000/svg" xmlns:xlink="http://www.w3.org/1999/xlink" x="0px" y="0px"
	 viewBox="0 0 318.023 318.023" style="enable-background:new 0 0 318.023 318.023;" xml:space="preserve">
<g>
	<g>
		<g>
			<g id="XMLID_33_">
				<g>
					<g>
						<path style="fill:#EAEEEF;" d="M188.671,208.297c13.008,9.659,20.781,25.171,20.781,41.497
							c0,28.326-22.635,51.383-50.44,51.383s-50.44-23.057-50.44-51.383c0-15.968,7.155-30.765,19.578-40.619l3.22-2.504V44.294
							c0-15.155,12.098-27.48,26.96-27.48s26.927,12.325,26.927,27.48v161.467L188.671,208.297z M188.313,253.599
							c0-15.675-12.456-28.358-27.805-28.358c-15.382,0-27.838,12.683-27.838,28.358c0,15.643,12.456,28.326,27.838,28.326
							C175.856,281.925,188.313,269.242,188.313,253.599z M168.02,199.484V46.538c0-4.651-3.707-8.423-8.26-8.423
							c-4.585,0-8.26,3.772-8.26,8.423v152.946c0,4.651,3.675,8.423,8.26,8.423C164.313,207.907,168.02,204.135,168.02,199.484z"/>
					</g>
					<g>
						<path style="fill:#2D213F;" d="M201.776,197.37c15.22,12.943,24.196,32.196,24.196,52.424
							c0,37.627-30.049,68.229-66.961,68.229S92.05,287.421,92.05,249.794c0-19.805,8.26-38.245,22.797-51.221V44.294
							C114.847,19.87,134.327,0,158.328,0c23.968,0,43.448,19.87,43.448,44.294V197.37z M209.451,249.794
							c0-16.326-7.773-31.838-20.781-41.497l-3.415-2.537V44.294c0-15.155-12.065-27.48-26.927-27.48s-26.96,12.325-26.96,27.48
							v162.378l-3.22,2.504c-12.423,9.854-19.578,24.651-19.578,40.619c0,28.326,22.635,51.383,50.44,51.383
							S209.451,278.12,209.451,249.794z"/>
					</g>
					<g>
						<path style="fill:#2D213F;" d="M160.507,225.241c15.35,0,27.805,12.683,27.805,28.358c0,15.643-12.456,28.326-27.805,28.326
							c-15.382,0-27.838-12.683-27.838-28.326C132.669,237.924,145.124,225.241,160.507,225.241z"/>
					</g>
					<g>
						<path style="fill:#2D213F;" d="M168.02,46.538v152.946c0,4.651-3.707,8.423-8.26,8.423c-4.585,0-8.26-3.772-8.26-8.423V46.538
							c0-4.651,3.675-8.423,8.26-8.423C164.313,38.115,168.02,41.887,168.02,46.538z"/>
					</g>
				</g>
			</g>
		</g>
		<path style="fill:#C5CBCF;" d="M205.848,268.754c-9.516,2.524-17.753,3.759-24.892,3.99c-5.083,5.629-12.351,9.181-20.449,9.181
			c-15.382,0-27.838-12.683-27.838-28.326c0-4.852,1.197-9.412,3.301-13.402c-1.444-7.226-1.018-12.797-1.018-12.797l9.034-166.582
			c0.771-14.205,7.386-27.461,18.274-36.615l6.316-5.311c-3.161-1.333-6.618-2.078-10.247-2.078c-14.862,0-26.96,12.325-26.96,27.48
			v162.378l-3.22,2.504c-12.423,9.854-19.578,24.651-19.578,40.619c0,28.326,22.635,51.383,50.44,51.383
			C180.24,301.177,198.421,287.717,205.848,268.754z"/>
	</g>
</g>
<g>
</g>
<g>
</g>
<g>
</g>
<g>
</g>
<g>
</g>
<g>
</g>
<g>
</g>
<g>
</g>
<g>
</g>
<g>
</g>
<g>
</g>
<g>
</g>
<g>
</g>
<g>
</g>
<g>
</g>
</svg>
